Coordinates
version=1
nRows=10
nColumns=40
inDegrees=yes

Units are S.I. units (second, meters, Newtons, ...)
Angles are in degrees.

endheader
time	pelvis_tilt	pelvis_list	pelvis_rotation	pelvis_tx	pelvis_ty	pelvis_tz	hip_flexion_r	hip_adduction_r	hip_rotation_r	knee_angle_r	knee_angle_r_beta	ankle_angle_r	subtalar_angle_r	mtp_angle_r	hip_flexion_l	hip_adduction_l	hip_rotation_l	knee_angle_l	knee_angle_l_beta	ankle_angle_l	subtalar_angle_l	mtp_angle_l	lumbar_extension	lumbar_bending	lumbar_rotation	arm_flex_r	arm_add_r	arm_rot_r	elbow_flex_r	pro_sup_r	wrist_flex_r	wrist_dev_r	arm_flex_l	arm_add_l	arm_rot_l	elbow_flex_l	pro_sup_l	wrist_flex_l	wrist_dev_l
     48.94678571	     -6.27794214	     -1.77389622	     -1.73337468	      0.90912729	      0.91945685	      0.44036047	     32.30325986	     -3.76625404	    -12.34876023	     18.56307598	     18.56307598	      3.33437320	      2.21569648	      9.74777640	      1.49146935	     -1.43484486	    -12.56546313	     11.34946640	     11.34946640	     19.28415195	      3.16588526	     -5.84817702	    -11.15170733	      0.64480064	      1.01858784	    -21.50170121	    -15.24235257	     -7.27011365	     26.17411531	     46.92318585	      0.00000000	      0.00000000	     27.39626963	    -21.34867273	     -2.26381362	     94.58719129	     47.79532469	      0.00000000	      0.00000000
     48.95857143	     -6.18351858	     -1.72912047	     -1.70809121	      0.91090026	      0.91740953	      0.44180629	     31.56217247	     -3.48774896	    -13.00446158	     17.25806840	     17.25806840	      3.06051448	      2.76980638	     10.15579583	      0.63839651	     -1.42338519	    -12.30337662	     11.29549173	     11.29549173	     19.84041445	      2.95019847	     -5.92666890	    -10.96628108	      0.66104704	      1.26658754	    -22.26297514	    -15.22396522	     -7.29420741	     26.19599226	     46.90626474	      0.00000000	      0.00000000	     27.16518919	    -21.01863482	     -2.29998457	     96.57267768	     47.84747291	      0.00000000	      0.00000000
     48.97035714	     -6.15748804	     -1.73705613	     -1.72055045	      0.91268922	      0.91537913	      0.44351513	     31.03174798	     -3.19524273	    -13.55155211	     16.59342864	     16.59342864	      2.68439627	      3.07984522	     10.09666416	     -0.08538603	     -1.50146637	    -12.06602414	     11.35725869	     11.35725869	     20.38011041	      2.67157976	     -5.92484662	    -10.71622972	      0.72579791	      1.55825184	    -22.83650124	    -15.12725228	     -7.32596481	     26.21339419	     46.89499392	      0.00000000	      0.00000000	     26.77157487	    -20.69104792	     -2.24959410	     98.50206716	     47.88898157	      0.00000000	      0.00000000
     48.98214286	     -6.09685434	     -1.78418726	     -1.72737031	      0.91446196	      0.91349433	      0.44539981	     30.67168958	     -2.94194865	    -13.91789111	     16.66121592	     16.66121592	      2.29125831	      3.01328687	      9.25213095	     -0.74255392	     -1.66121635	    -11.77823065	     11.61331982	     11.61331982	     20.94508657	      2.29132654	     -5.75828916	    -10.55639694	      0.81033609	      1.73695227	    -23.12666800	    -15.06950484	     -7.39860575	     26.35066047	     46.88277291	      0.00000000	      0.00000000	     26.08917568	    -20.49069929	     -2.26424353	    100.85811752	     47.94480180	      0.00000000	      0.00000000
     48.99392857	     -6.09845834	     -1.85672826	     -1.69781194	      0.91613966	      0.91184585	      0.44746518	     30.37789340	     -2.66172454	    -13.99334143	     16.91679812	     16.91679812	      1.05880396	      2.27195417	      6.03987252	     -1.22172939	     -1.89382824	    -11.52812078	     12.07536745	     12.07536745	     21.65681396	      1.95548753	     -4.98088212	    -10.39115269	      0.89007525	      1.10268689	    -22.66846854	    -15.09117503	     -7.47748384	     26.58695879	     46.85936610	      0.00000000	      0.00000000	     24.45924272	    -20.88708876	     -3.02967921	    103.89569279	     48.07890118	      0.00000000	      0.00000000
     49.00571429	     -6.02072820	     -2.15922015	     -1.73714036	      0.91794788	      0.91072675	      0.44984241	     30.06071169	     -2.21253486	    -14.08323312	     17.64408362	     17.64408362	      1.17976124	      1.99498161	      5.61034090	     -1.88561320	     -2.38951602	    -11.36362181	     12.36063018	     12.36063018	     22.03619341	      1.73550386	     -5.03629229	    -10.19717450	      1.30550755	      1.41780988	    -22.34328654	    -14.87946587	     -7.41509631	     26.62368880	     46.85407686	      0.00000000	      0.00000000	     23.89651256	    -20.49381567	     -2.88802033	    104.10244726	     48.07334888	      0.00000000	      0.00000000
     49.01750000	     -5.95891750	     -2.39301907	     -1.72206683	      0.91951161	      0.90967226	      0.45245941	     29.81015037	     -1.71349482	    -13.43820909	     18.38511664	     18.38511664	     -0.40114373	     -0.11793800	      0.27841008	     -2.02873531	     -2.98481786	    -11.41273464	     13.65083237	     13.65083237	     23.04120753	      1.80566010	     -3.83960994	    -10.19867175	      1.49140864	      0.86920643	    -20.99604643	    -14.91582574	     -6.98221372	     25.50864475	     46.85084826	      0.00000000	      0.00000000	     22.04055261	    -20.54897673	     -3.96320000	    107.10867034	     48.24709914	      0.00000000	      0.00000000
     49.02928571	     -5.81388232	     -2.71820778	     -1.74255365	      0.92107154	      0.90938017	      0.45506590	     29.57162626	     -1.30443942	    -13.31746075	     19.59341997	     19.59341997	     -0.00408014	     -0.72204329	     -0.30239431	     -2.47879836	     -3.58541726	    -11.26284305	     14.42858043	     14.42858043	     23.20869341	      1.38233898	     -3.87461479	    -10.23608731	      1.89767852	      1.32179146	    -20.42479116	    -14.69303532	     -6.86572264	     25.52715168	     46.84310848	      0.00000000	      0.00000000	     21.25257018	    -19.91016742	     -3.71492101	    107.36171550	     48.23739797	      0.00000000	      0.00000000
     49.04107143	     -5.86827956	     -3.02765687	     -1.75818930	      0.92231259	      0.90904568	      0.45795714	     29.59116904	     -0.78667857	    -12.64565382	     20.82607217	     20.82607217	      0.33411185	     -2.24924036	     -1.07219396	     -2.33157051	     -4.29429494	    -11.15437944	     15.90835629	     15.90835629	     23.52052076	      0.91764092	     -3.91477749	    -10.10390478	      2.15846451	      1.51414500	    -19.34534908	    -14.37561960	     -6.62268167	     25.31672780	     46.83583453	      0.00000000	      0.00000000	     20.08835094	    -19.46591263	     -3.65878086	    108.29045141	     48.26190849	      0.00000000	      0.00000000
     49.05285714	     -5.75503383	     -3.37008093	     -1.77764304	      0.92362007	      0.90958423	      0.46093319	     29.25189203	     -0.25940126	    -12.27261809	     21.78227393	     21.78227393	      0.88588411	     -3.11366725	     -1.49853751	     -2.41256230	     -5.03981947	    -11.12380402	     17.25955971	     17.25955971	     23.40463229	      0.53176374	     -3.96189320	    -10.24649859	      2.53284598	      1.70632771	    -18.04653015	    -14.10291056	     -6.43587806	     25.33911801	     46.82797797	      0.00000000	      0.00000000	     18.85571966	    -19.11815921	     -3.61036911	    108.59306547	     48.26830571	      0.00000000	      0.00000000
